<?xml version="1.0" encoding="UTF-8"?> <svg xmlns="http://www.w3.org/2000/svg" xmlns:xlink="http://www.w3.org/1999/xlink" id="Layer_1" x="0px" y="0px" viewBox="0 0 3029.9 1042.6" style="enable-background:new 0 0 3029.9 1042.6;" xml:space="preserve"> <style type="text/css"> .st0{fill:#00A94F;} </style> <g> <g> <g> <path class="st0" d="M738,369.2l-321.4-131c-31.1-12.7-66.9,2.4-79.6,33.5L205.9,593c-12.7,31.1,2.4,66.9,33.5,79.6l321.4,131 c31.1,12.7,66.9-2.4,79.6-33.5l131-321.4C784.2,417.7,769.1,381.8,738,369.2z M305.4,439.4h233.7v73.2H305.4V439.4z M672.1,602.4 H377.2v-73.2h294.9V602.4z"></path> </g> </g> <g> <path d="M986.1,498.1c-46.1-18-62.9-18.5-62.9-33.5c0-8.7,4.7-13.9,21.9-13.9c22.4-0.5,49.8,4.6,94.1,19l21.9-72.6 c-48-17-83.4-23.2-126.7-23.2c-65.7,0-105.2,31.4-105.2,99.3c0,54,25.1,76.7,78.2,96.2c47,17,61.5,19.6,61.5,32.9 c0,9.8-5.1,16-20.5,16c-22.4,0-59.6-11.8-101.1-35.5l-28.9,73.1c41.9,26.2,91.3,41.7,134.1,41.7c67.1,0,110.4-37.1,110.4-105 C1062.9,532.1,1028,514.6,986.1,498.1z"></path> <path d="M1316.2,364.3c-37,0-68.5,15.5-111.5,52.4v-61.3v-90.6v-29h-121.6v29v90.6v341.4h121.6V512.1 c16.1-18.1,33.6-30.2,54.4-30.2c24.9,0,30.2,10.8,30.2,45v170h121.6V488.6C1410.9,399.9,1384.7,364.3,1316.2,364.3z"></path> <path d="M2201,605.5c-30.2,0-37.6-14.1-37.6-38.3v-96.7h76.6V370.3h-76.6v-69.9h-121.6v69.2h-30.9h-27.7h-50.2v-5.4 c0-22.8,8.1-38.3,39-38.3l41,0.7l8.1-83.3c-24.2-5.4-45.7-8.1-72.6-8.1c-94.1,0-137.1,38.3-137.1,127.6v6.7h-43l-116.9,0.7 c-20.2,75.2-37,130.3-61.8,183.4l-14.8-50.4l-49-133h-125.6l115.6,296.9c-24.2,23.5-49.7,37-81.3,50.4l39.6,91.4 c99.4-32.2,161.2-89.4,206.3-174.7c23.5-44.7,45.4-101.7,66.9-163.9h21h43v226.4h121.6V470.4h64.5h13.4h30.9v102.1 c0,93.4,33.6,129.7,112.2,129.7c36.3,0,77.9-10.1,100.8-24.2l-12.1-73.2C2227.2,605.5,2215.1,605.5,2201,605.5z"></path> <path d="M2565.8,520.8c0-101.4-59.8-157.2-154.5-157.2c-105.5,0-168,60.5-168,172c0,109.5,64.5,167.3,168,167.3 c55.8,0,102.1-15.5,154.5-52.4l-34.3-69.2c-41.7,19.5-70.5,28.2-114.9,28.2c-32.9,0-49.7-12.8-55.8-43.7h202.2 C2565.1,547,2565.8,535.6,2565.8,520.8z M2360.2,501.3c5.4-37,23.5-54.4,51.1-54.4c30.9,0,47.7,18.8,49,54.4H2360.2z"></path> <path d="M2788.1,364.3c-36.3,0-61.1,20.8-85.3,68.5v-63.2h-121.6v327.2h121.6V545c12.8-46.4,39.6-56.4,79.3-56.4 c11.4,0,22.2,0,38.3,1.3l8.1-123.6C2810.3,364.3,2799.5,364.3,2788.1,364.3z"></path> </g> </g> </svg> 